<svg width="69" height="23" viewBox="0 0 69 23" fill="none" xmlns="http://www.w3.org/2000/svg">
<path d="M34.6566 22.3976C53.3026 22.3976 68.4182 17.5521 68.4182 11.5748C68.4182 5.59756 53.3026 0.752029 34.6566 0.752029C16.0105 0.752029 0.894917 5.59756 0.894917 11.5748C0.894917 17.5521 16.0105 22.3976 34.6566 22.3976Z" fill="url(#paint0_radial_3_712)"/>
<path style="mix-blend-mode:screen" d="M65.2212 13.7044C69.0116 8.10225 58.4161 2.53981 41.5554 1.28039C24.6947 0.0209653 7.95365 3.54147 4.16321 9.14365C0.372762 14.7458 10.9683 20.3083 27.829 21.5677C44.6897 22.8271 61.4307 19.3066 65.2212 13.7044Z" fill="url(#paint1_radial_3_712)"/>
<g style="mix-blend-mode:multiply" opacity="0.1">
<path d="M8.86488 9.64794C17.7347 9.04034 11.6181 12.2634 11.6181 12.2634L21.1706 11.1504C24.0277 10.8176 26.9618 10.5442 29.95 10.3412C34.3714 10.0401 40.7774 9.51261 39.4528 9.05277C37.4682 8.3637 38.4085 7.36806 27.4229 8.02952C16.4373 8.69097 27.8298 5.92087 32.5721 5.92087C33.8696 5.92087 23.4807 6.68451 25.922 7.42468C28.3632 8.16346 38.309 5.80073 42.0568 6.67346C42.0568 6.67346 36.8579 6.80051 37.6987 7.78095C38.5396 8.7614 45.0406 9.224 50.1627 7.33492C55.2848 5.44583 37.319 5.92225 37.319 5.92225C37.319 5.92225 46.1888 3.56918 50.5469 5.16137C52.3146 5.80763 53.5894 6.0272 54.4801 6.06172C53.3092 5.11303 51.5867 4.22925 49.3806 3.45732C46.5505 3.03753 42.961 3.04857 38.8109 4.22925C28.2954 7.22168 16.4418 5.94158 23.0964 4.35077C29.7466 2.75996 35.6372 3.206 35.6372 3.206C35.6372 3.206 24.3984 4.00692 26.0033 4.73881C27.6082 5.46931 43.0514 3.90336 41.1436 2.56387C39.2313 1.22439 22.563 2.56387 22.563 2.56387C22.563 2.56387 29.4889 2.3595 26.7538 3.05133C24.0187 3.74179 11.6316 4.66286 13.3902 5.86149C15.1488 7.05874 25.6146 6.34619 25.6146 6.34619C25.6146 6.34619 15.3477 9.41871 26.7538 8.46036C38.1644 7.50339 39.6156 8.74069 36.8624 9.16048C34.1092 9.58028 8.64788 12.1115 15.9129 8.03228C15.9129 8.03228 3.13698 10.4806 7.38204 7.42744C11.6316 4.37287 5.20752 6.14595 5.20752 6.14595C5.20752 6.14595 10.8812 2.19793 13.6163 3.39242C16.3514 4.58691 9.25819 4.92385 9.25819 4.92385C9.25819 4.92385 15.3749 5.14479 20.0404 2.76134C22.9518 1.2741 19.2763 1.25201 16.1072 1.44672C10.3341 2.32083 5.51946 3.80807 2.82957 5.7662C1.64963 6.62237 0.971506 7.50339 0.740944 8.38165C2.70751 7.879 5.2889 7.15264 5.2889 7.15264C5.2889 7.15264 0.0130891 10.2583 8.88296 9.65209L8.86488 9.64794Z" fill="#FF1E00"/>
</g>
<path style="mix-blend-mode:screen" d="M66.0655 13.8154C69.8531 8.21296 59.2544 2.65114 42.3926 1.3927C25.5308 0.134251 8.79111 3.65572 5.0035 9.25813C1.2159 14.8605 11.8146 20.4223 28.6764 21.6808C45.5382 22.9392 62.2779 19.4178 66.0655 13.8154Z" fill="url(#paint2_radial_3_712)"/>
<path style="mix-blend-mode:screen" opacity="0.38" d="M65.6108 12.6142C58.8955 15.1754 43.8258 6.69812 23.1411 11.2319C2.45646 15.7675 -1.32089 8.07859 11.3724 4.40205C21.2921 1.52976 30.6675 0.317212 46.8545 2.04412C63.0415 3.76927 70.0801 10.9085 65.6108 12.6142Z" fill="url(#paint3_linear_3_712)"/>
<path style="mix-blend-mode:screen" opacity="0.38" d="M3.62525 10.1234C10.5664 7.62055 24.9029 16.2215 45.9876 11.8645C67.0779 7.50743 70.1824 15.2246 57.1627 18.7916C46.9865 21.579 37.5026 22.7103 21.4635 20.849C5.4244 18.986 -0.994651 11.792 3.62525 10.1234Z" fill="url(#paint4_linear_3_712)"/>
<g style="mix-blend-mode:multiply" opacity="0.1">
<path d="M58.512 10.7369C47.6045 11.5146 55.1263 7.38911 55.1263 7.38911L43.3793 8.81377C39.8658 9.23975 36.2577 9.58973 32.583 9.84956C27.1459 10.2349 19.2682 10.9101 20.8971 11.4987C23.3377 12.3807 22.1813 13.6551 35.6907 12.8085C49.2 11.9618 35.1903 15.5075 29.3585 15.5075C27.763 15.5075 40.5385 14.5301 37.5364 13.5827C34.5343 12.637 22.3036 15.6613 17.6949 14.5442C17.6949 14.5442 24.0882 14.3816 23.0542 13.1266C22.0201 11.8717 14.0257 11.2795 7.72689 13.6976C1.42809 16.1156 23.5211 15.5058 23.5211 15.5058C23.5211 15.5058 12.6136 18.5177 7.25434 16.4797C5.08062 15.6525 3.51287 15.3714 2.41767 15.3272C3.85755 16.5416 5.97568 17.6728 8.68867 18.6609C12.1689 19.1982 16.583 19.1841 21.6865 17.6728C34.6177 13.8425 49.1945 15.481 41.011 17.5173C32.8331 19.5535 25.5892 18.9826 25.5892 18.9826C25.5892 18.9826 39.4099 17.9574 37.4363 17.0206C35.4627 16.0855 16.4718 18.09 18.8179 19.8045C21.1695 21.519 41.667 19.8045 41.667 19.8045C41.667 19.8045 33.15 20.0661 36.5135 19.1805C39.8769 18.2968 55.1097 17.1178 52.9471 15.5835C50.7844 14.0511 37.9144 14.9631 37.9144 14.9631C37.9144 14.9631 50.5398 11.0303 36.5135 12.257C22.4815 13.4819 20.697 11.8982 24.0826 11.3608C27.4683 10.8235 58.7789 7.58355 49.8449 12.8049C49.8449 12.8049 65.5558 9.67104 60.3355 13.5791C55.1152 17.4872 63.0096 15.2194 63.0096 15.2194C63.0096 15.2194 56.0325 20.2729 52.6691 18.744C49.3056 17.215 58.0283 16.7837 58.0283 16.7837C58.0283 16.7837 50.5065 16.5009 44.7692 19.5517C41.1889 21.4554 45.7087 21.4837 49.6059 21.2345C56.7052 20.1156 62.626 18.2119 65.9338 15.7055C67.3792 14.6096 68.2187 13.4819 68.5023 12.3577C66.0839 13.0011 62.9095 13.9309 62.9095 13.9309C62.9095 13.9309 69.3973 9.95562 58.4898 10.7316L58.512 10.7369Z" fill="#FF1E00"/>
</g>
<defs>
<radialGradient id="paint0_radial_3_712" cx="0" cy="0" r="1" gradientUnits="userSpaceOnUse" gradientTransform="translate(34.6566 11.5748) scale(33.7617 10.8228)">
<stop offset="0.58" stop-color="#FF7D00"/>
<stop offset="0.73" stop-color="#FF5700"/>
<stop offset="0.88" stop-color="#FF2900"/>
<stop offset="1" stop-color="#FF0000"/>
</radialGradient>
<radialGradient id="paint1_radial_3_712" cx="0" cy="0" r="1" gradientUnits="userSpaceOnUse" gradientTransform="translate(34.6911 11.4249) scale(31.2909 10.3968)">
<stop stop-color="#FF00FF"/>
<stop offset="0.1" stop-color="#D000D0"/>
<stop offset="0.23" stop-color="#990099"/>
<stop offset="0.37" stop-color="#6A006A"/>
<stop offset="0.5" stop-color="#440044"/>
<stop offset="0.63" stop-color="#260026"/>
<stop offset="0.76" stop-color="#110011"/>
<stop offset="0.88" stop-color="#040004"/>
<stop offset="1"/>
</radialGradient>
<radialGradient id="paint2_radial_3_712" cx="0" cy="0" r="1" gradientUnits="userSpaceOnUse" gradientTransform="translate(35.5307 11.5383) scale(31.2918 10.3968)">
<stop stop-color="#FFFF00"/>
<stop offset="0.1" stop-color="#D0D000"/>
<stop offset="0.23" stop-color="#999900"/>
<stop offset="0.37" stop-color="#6A6A00"/>
<stop offset="0.5" stop-color="#444400"/>
<stop offset="0.63" stop-color="#262600"/>
<stop offset="0.76" stop-color="#111100"/>
<stop offset="0.88" stop-color="#040400"/>
<stop offset="1"/>
</radialGradient>
<linearGradient id="paint3_linear_3_712" x1="58.1918" y1="4.32227" x2="45.9161" y2="30.4333" gradientUnits="userSpaceOnUse">
<stop stop-color="#FFFF00"/>
<stop offset="0.1" stop-color="#D0D000"/>
<stop offset="0.23" stop-color="#999900"/>
<stop offset="0.37" stop-color="#6A6A00"/>
<stop offset="0.5" stop-color="#444400"/>
<stop offset="0.63" stop-color="#262600"/>
<stop offset="0.76" stop-color="#111100"/>
<stop offset="0.88" stop-color="#040400"/>
<stop offset="1"/>
</linearGradient>
<linearGradient id="paint4_linear_3_712" x1="18.0122" y1="20.365" x2="21.7337" y2="2.64827" gradientUnits="userSpaceOnUse">
<stop stop-color="#FF00FF"/>
<stop offset="0.1" stop-color="#D000D0"/>
<stop offset="0.23" stop-color="#990099"/>
<stop offset="0.37" stop-color="#6A006A"/>
<stop offset="0.5" stop-color="#440044"/>
<stop offset="0.63" stop-color="#260026"/>
<stop offset="0.76" stop-color="#110011"/>
<stop offset="0.88" stop-color="#040004"/>
<stop offset="1"/>
</linearGradient>
</defs>
</svg>
