<svg width="24" height="25" viewBox="0 0 24 25" fill="none" xmlns="http://www.w3.org/2000/svg">
<path d="M15 6.5C15 4.84315 13.6569 3.5 12 3.5C10.3431 3.5 9 4.84315 9 6.5V11.5C9 13.1569 10.3431 14.5 12 14.5C13.6569 14.5 15 13.1569 15 11.5V6.5Z" stroke="#8D8D8D" stroke-width="2" stroke-linejoin="round"/>
<path d="M5 11.5C5 12.4193 5.18106 13.3295 5.53284 14.1788C5.88463 15.0281 6.40024 15.7997 7.05025 16.4497C7.70026 17.0998 8.47194 17.6154 9.32122 17.9672C10.1705 18.3189 11.0807 18.5 12 18.5C12.9193 18.5 13.8295 18.3189 14.6788 17.9672C15.5281 17.6154 16.2997 17.0998 16.9497 16.4497C17.5998 15.7997 18.1154 15.0281 18.4672 14.1788C18.8189 13.3295 19 12.4193 19 11.5M12 21.5V19.5" stroke="#8D8D8D" stroke-width="2" stroke-linecap="round" stroke-linejoin="round"/>
</svg>
